<svg id="Layer_1" data-name="Layer 1" xmlns="http://www.w3.org/2000/svg" viewBox="0 0 1620 504"><defs><style>.cls-1{fill:#27272a;}.cls-2{fill:#ffc905;}</style></defs><title>logo</title><path class="cls-1" d="M213.35,135.15A9.43,9.43,0,0,1,208,148.1c-47.87,17-82,60.94-82,112.47V270H72v-9.43c0-73,47.88-135.3,115.35-160a9.43,9.43,0,0,1,11.76,4.79Z"/><rect class="cls-1" x="72" y="288" width="54" height="144"/><path class="cls-1" d="M432,260.57V270H378v-9.43c0-51.53-34.1-95.46-82-112.47a9.43,9.43,0,0,1-5.38-12.95l14.24-29.82a9.43,9.43,0,0,1,11.76-4.79C384.12,125.27,432,187.6,432,260.57Z"/><rect class="cls-1" x="378" y="288" width="54" height="144"/><path class="cls-2" d="M286.26,74.32a9.45,9.45,0,0,1,7.26,13.42l-2.59,5.42-20.06,42a9.48,9.48,0,0,1-9.11,5.35q-4.85-.27-9.76-.27t-9.76.27a9.49,9.49,0,0,1-9.11-5.35l-20.06-42-2.59-5.42a9.45,9.45,0,0,1,7.26-13.42,254.12,254.12,0,0,1,68.52,0Z"/><path class="cls-2" d="M360,260.57V432H306V260.57c0-28.41-24.18-51.43-54-51.43s-54,23-54,51.43V432H144V260.57c0-56.81,48.36-102.86,108-102.86S360,203.76,360,260.57Z"/><path class="cls-1" d="M717.43,229.68q0,29.1-16.83,48.74T647,304.71L728.3,398a55.48,55.48,0,0,0,20,14.9,57.93,57.93,0,0,0,23.5,5.08v14H688.67l-87-106.6q-8.76-10.51-15.25-14.2t-12.1-3.68v68.73a104.11,104.11,0,0,0,1.76,21.21q1.74,8.25,7,12.8t15.25,6.14q10,1.58,26.83,1.57v14H486V418a90.74,90.74,0,0,0,18.76-1.57q7.19-1.59,11.22-6t5.43-12.28A118.07,118.07,0,0,0,522.82,378V216a149.6,149.6,0,0,0-1.05-19.81q-1.07-7.55-4.56-11.92a17.66,17.66,0,0,0-10-6A104.37,104.37,0,0,0,489.86,176V162H611.18q50.84,0,78.55,17.88T717.43,229.68Zm-143.07,56.8h22.8q33,0,49.26-12.8t16.31-42.25q0-22.44-13.68-36.12t-37.87-13.67H580.67q-6.3,0-6.31,6Z"/><path class="cls-1" d="M881.84,242.49a110.1,110.1,0,0,1,39.72,7.18,106.16,106.16,0,0,1,32.9,19.77,93,93,0,0,1,22.4,29.92,87.46,87.46,0,0,1,8.22,38,92.55,92.55,0,0,1-8.22,39.19,95.28,95.28,0,0,1-22.4,30.8,105.42,105.42,0,0,1-32.9,20.3,110.8,110.8,0,0,1-78.92.17,101,101,0,0,1-32.54-20.12,93.47,93.47,0,0,1-22.05-31,95.4,95.4,0,0,1-8-39.37,90.13,90.13,0,0,1,8-38.15,91.3,91.3,0,0,1,22.05-30.1,101.85,101.85,0,0,1,32.54-19.6A110.24,110.24,0,0,1,881.84,242.49Zm0,20.3a35.79,35.79,0,0,0-19.25,5.43,46.51,46.51,0,0,0-14.87,15.22,79.11,79.11,0,0,0-9.45,23.62A131,131,0,0,0,835,337.69a136.37,136.37,0,0,0,3.32,31.49,78.78,78.78,0,0,0,9.45,23.8,47.11,47.11,0,0,0,14.7,15.23,35.51,35.51,0,0,0,19.42,5.42,37.29,37.29,0,0,0,19.77-5.42,46.92,46.92,0,0,0,15.23-15.4,82,82,0,0,0,9.8-24,128.6,128.6,0,0,0,3.5-31.14,122.82,122.82,0,0,0-3.5-30.45,82.25,82.25,0,0,0-9.8-23.62,46.92,46.92,0,0,0-15.23-15.4A37.3,37.3,0,0,0,881.84,262.79Z"/><path class="cls-1" d="M1073.47,374.25q0,14.7.7,23.1t3.85,12.78a14.92,14.92,0,0,0,9.1,5.77,104.89,104.89,0,0,0,16.45,2.1v14H993V418a114.49,114.49,0,0,0,16.8-2.1q6.3-1.39,9.45-5.6t4.2-12.07a168.09,168.09,0,0,0,1.05-21.18V333.66q0-19.95-.53-33.25t-1.92-18.2a25.13,25.13,0,0,0-2.63-7.17,11,11,0,0,0-4.9-4.2,26.33,26.33,0,0,0-8.57-2.1q-5.25-.53-13.65-.53v-11.9L1059.82,243l4.2,30.44h2.1Q1080.82,257,1095.7,250t34.47-7q23.1,0,38.15,8a53.18,53.18,0,0,1,22.74,23.1h1.4a89.08,89.08,0,0,1,30.1-22.92A87,87,0,0,1,1260,243q21,0,36.57,5.24t24.32,15.05q7,8.06,10.33,21t3.32,36.05v53.89q0,14.36.88,22.75t4,12.95a14.64,14.64,0,0,0,9.1,5.95A104.89,104.89,0,0,0,1365,418v14H1254.41V418a80.09,80.09,0,0,0,16.62-1.92,16.61,16.61,0,0,0,9.45-5.95q3.33-4.38,4.2-12.08a196.69,196.69,0,0,0,.88-21V331.21a191.3,191.3,0,0,0-2.1-30.8q-2.1-12.6-6.65-20.3a26.22,26.22,0,0,0-12.08-11q-7.53-3.33-18.37-3.33-12.25,0-20.12,5.95a48.52,48.52,0,0,0-13.13,15.4q-9.1,16.45-9.1,40.95v46.19q0,14.36.7,22.75t3.85,12.95a14.73,14.73,0,0,0,9.28,5.95,111,111,0,0,0,17,2.1v14H1123.87V418a109.44,109.44,0,0,0,16.62-2.1,16.18,16.18,0,0,0,9.45-5.6q3.33-4.2,4.2-12.07a202.08,202.08,0,0,0,.88-21.18V331.21a191.3,191.3,0,0,0-2.1-30.8q-2.1-12.6-6.83-20.3a27,27,0,0,0-12.42-11q-7.71-3.33-19.25-3.33t-19.07,5.6a43.14,43.14,0,0,0-12.43,15.05,74.92,74.92,0,0,0-7,19.25,101.63,101.63,0,0,0-2.45,22.4Z"/><path class="cls-1" d="M1546.68,398.93q-31.85,36-79.44,36.05-21.71,0-39.37-6.83A85.69,85.69,0,0,1,1378,379.33q-7-17.15-7-38.14a104.28,104.28,0,0,1,7.35-39.73,90.85,90.85,0,0,1,20.82-31.14A96.38,96.38,0,0,1,1431,249.84a107.88,107.88,0,0,1,40.42-7.35q37.1,0,57.75,19.95t20.64,56c0,3.73-.58,6-1.75,6.82s-4.43,1.23-9.79,1.23H1425.6q-1.41,3.15-1.4,11.55,0,34.29,14.87,54.24t40.42,20a69.51,69.51,0,0,0,29.22-6.65,112.42,112.42,0,0,0,28.18-18.9Zm-67.89-92q14,0,18-1.58c2.68-1.05,4-3.55,4-7.52q0-15.39-8.75-25.2a28.3,28.3,0,0,0-22-9.8q-15,0-26.77,12.43t-15.22,31.67Z"/></svg>