<svg id="Layer_1" data-name="Layer 1" xmlns="http://www.w3.org/2000/svg" viewBox="0 0 1620 504"><defs><style>.cls-1{fill:#ffc905;}</style></defs><title>logo_yellow </title><path class="cls-1" d="M212.43,133.66a9.43,9.43,0,0,1-5.38,13c-47.87,17-82,60.95-82,112.47v9.43h-54v-9.43c0-73,47.88-135.3,115.35-160a9.44,9.44,0,0,1,11.77,4.79Z"/><rect class="cls-1" x="71.08" y="286.51" width="54" height="144"/><path class="cls-1" d="M431.08,259.08v9.43h-54v-9.43c0-51.52-34.09-95.46-82-112.47a9.43,9.43,0,0,1-5.38-13L304,103.84a9.44,9.44,0,0,1,11.77-4.79C383.2,123.78,431.08,186.11,431.08,259.08Z"/><rect class="cls-1" x="377.08" y="286.51" width="54" height="144"/><path class="cls-1" d="M285.34,72.84a9.43,9.43,0,0,1,7.26,13.41L290,91.67,270,133.7a9.51,9.51,0,0,1-9.12,5.35q-4.84-.27-9.76-.27c-3.27,0-6.53.09-9.76.27a9.49,9.49,0,0,1-9.11-5.35l-20.06-42-2.58-5.42a9.43,9.43,0,0,1,7.25-13.41,253,253,0,0,1,68.52,0Z"/><path class="cls-1" d="M359.08,259.08V430.51h-54V259.08c0-28.41-24.18-51.43-54-51.43s-54,23-54,51.43V430.51h-54V259.08c0-56.81,48.36-102.85,108-102.85S359.08,202.27,359.08,259.08Z"/><path class="cls-1" d="M716.51,228.19q0,29.1-16.83,48.74T646,303.23l81.35,93.27a55.2,55.2,0,0,0,20,14.9,57.85,57.85,0,0,0,23.49,5.08v14h-83.1l-87-106.6q-8.77-10.52-15.26-14.2T573.45,306v68.73A104.93,104.93,0,0,0,575.2,396q1.75,8.25,7,12.8t15.26,6.14q10,1.57,26.82,1.57v14H485.08v-14a90.61,90.61,0,0,0,18.76-1.57,20.84,20.84,0,0,0,11.22-6q4-4.38,5.44-12.28a119.25,119.25,0,0,0,1.4-20.16v-162a149.6,149.6,0,0,0-1-19.81c-.7-5-2.23-9-4.56-11.92a17.67,17.67,0,0,0-10-6,104.67,104.67,0,0,0-17.36-2.28v-14H610.26q50.85,0,78.55,17.88T716.51,228.19ZM573.45,285h22.79q33,0,49.26-12.8t16.31-42.25q0-22.44-13.68-36.12t-37.87-13.67h-30.5q-6.32,0-6.31,6Z"/><path class="cls-1" d="M880.92,241a110.18,110.18,0,0,1,39.73,7.17A106.22,106.22,0,0,1,953.54,268a92.91,92.91,0,0,1,22.4,29.93,87.39,87.39,0,0,1,8.22,38A92.55,92.55,0,0,1,975.94,375a95.13,95.13,0,0,1-22.4,30.8,105.48,105.48,0,0,1-32.89,20.3,110.8,110.8,0,0,1-78.92.17,101.06,101.06,0,0,1-32.55-20.12,93.76,93.76,0,0,1-22-31,95.4,95.4,0,0,1-8-39.37,90.13,90.13,0,0,1,8-38.15,91.58,91.58,0,0,1,22-30.1A101.9,101.9,0,0,1,841.73,248,110.18,110.18,0,0,1,880.92,241Zm0,20.29a35.75,35.75,0,0,0-19.24,5.43A46.44,46.44,0,0,0,846.8,282a79.64,79.64,0,0,0-9.45,23.62A131,131,0,0,0,834,336.2a136.37,136.37,0,0,0,3.32,31.49,79.3,79.3,0,0,0,9.45,23.8,47.11,47.11,0,0,0,14.7,15.23,35.53,35.53,0,0,0,19.42,5.42,37.33,37.33,0,0,0,19.78-5.42,46.89,46.89,0,0,0,15.22-15.4,81.68,81.68,0,0,0,9.8-24,128.6,128.6,0,0,0,3.5-31.14,122.82,122.82,0,0,0-3.5-30.45,82.09,82.09,0,0,0-9.8-23.62,46.89,46.89,0,0,0-15.22-15.4A37.33,37.33,0,0,0,880.92,261.3Z"/><path class="cls-1" d="M1072.56,372.77q0,14.7.7,23.09t3.85,12.78a14.92,14.92,0,0,0,9.1,5.77,104.57,104.57,0,0,0,16.44,2.1v14H992.06v-14a114.49,114.49,0,0,0,16.8-2.1q6.3-1.4,9.45-5.6t4.2-12.07a168,168,0,0,0,1-21.17v-43.4q0-19.95-.52-33.25t-1.93-18.2a25.15,25.15,0,0,0-2.62-7.17,11,11,0,0,0-4.9-4.2,26.39,26.39,0,0,0-8.58-2.1q-5.25-.53-13.65-.52v-11.9l67.55-13.3,4.2,30.44h2.1q14.7-16.44,29.57-23.44t34.47-7q23.1,0,38.15,8.05a53.18,53.18,0,0,1,22.75,23.09h1.4a89.3,89.3,0,0,1,30.09-22.92,87,87,0,0,1,37.45-8.22q21,0,36.57,5.25t24.33,15q7,8.06,10.32,21t3.33,36.05v53.9q0,14.34.87,22.74t4,12.95a14.59,14.59,0,0,0,9.09,6,104.89,104.89,0,0,0,16.45,2.1v14H1253.49v-14a80.29,80.29,0,0,0,16.63-1.92,16.68,16.68,0,0,0,9.45-5.95q3.32-4.38,4.19-12.08a196.61,196.61,0,0,0,.88-21V329.72a191.3,191.3,0,0,0-2.1-30.8q-2.1-12.6-6.65-20.3a26.2,26.2,0,0,0-12.07-11q-7.53-3.32-18.38-3.32-12.26,0-20.12,5.94a48.49,48.49,0,0,0-13.12,15.4q-9.1,16.45-9.1,40.95v46.2q0,14.34.7,22.74t3.85,12.95a14.71,14.71,0,0,0,9.27,6,111,111,0,0,0,17,2.1v14H1123v-14a109.77,109.77,0,0,0,16.63-2.1,16.21,16.21,0,0,0,9.45-5.6q3.32-4.2,4.2-12.07a205.27,205.27,0,0,0,.87-21.17V329.72a191.3,191.3,0,0,0-2.1-30.8q-2.1-12.6-6.82-20.3a27,27,0,0,0-12.43-11q-7.7-3.32-19.25-3.32t-19.07,5.6a42.88,42.88,0,0,0-12.42,15,74.55,74.55,0,0,0-7,19.25,101,101,0,0,0-2.45,22.4Z"/><path class="cls-1" d="M1545.77,397.44q-31.86,36-79.45,36.05-21.69,0-39.37-6.83a85.69,85.69,0,0,1-49.87-48.82q-7-17.14-7-38.14a104.19,104.19,0,0,1,7.35-39.72,90.68,90.68,0,0,1,20.83-31.15,96.23,96.23,0,0,1,31.84-20.48,108.11,108.11,0,0,1,40.42-7.34q37.1,0,57.75,19.94t20.65,56c0,3.73-.59,6-1.75,6.82s-4.44,1.23-9.8,1.23H1424.68q-1.41,3.15-1.4,11.55,0,34.29,14.87,54.24t40.42,19.95a69.58,69.58,0,0,0,29.23-6.65,112.37,112.37,0,0,0,28.17-18.9Zm-67.9-92q14,0,18-1.58c2.68-1.05,4-3.55,4-7.52q0-15.39-8.75-25.2a28.3,28.3,0,0,0-22.05-9.8q-15,0-26.77,12.43t-15.22,31.67Z"/></svg>